<?xml version="1.0" encoding="UTF-8" standalone="no"?>
<!-- Created with Inkscape (http://www.inkscape.org/) -->

<svg
   xmlns:dc="http://purl.org/dc/elements/1.1/"
   xmlns:cc="http://creativecommons.org/ns#"
   xmlns:rdf="http://www.w3.org/1999/02/22-rdf-syntax-ns#"
   xmlns:svg="http://www.w3.org/2000/svg"
   xmlns="http://www.w3.org/2000/svg"
   xmlns:sodipodi="http://sodipodi.sourceforge.net/DTD/sodipodi-0.dtd"
   xmlns:inkscape="http://www.inkscape.org/namespaces/inkscape"
   width="120mm"
   height="90mm"
   viewBox="0 0 425.19681 318.89764"
   id="svg2"
   version="1.1"
   inkscape:version="0.91 r13725"
   sodipodi:docname="background.svg">
  <defs
     id="defs4" />
  <sodipodi:namedview
     id="base"
     pagecolor="#ffffff"
     bordercolor="#666666"
     borderopacity="1.0"
     inkscape:pageopacity="0.0"
     inkscape:pageshadow="2"
     inkscape:zoom="1.4"
     inkscape:cx="186.92176"
     inkscape:cy="154.68546"
     inkscape:document-units="px"
     inkscape:current-layer="layer1"
     showgrid="false"
     inkscape:window-width="1366"
     inkscape:window-height="704"
     inkscape:window-x="0"
     inkscape:window-y="27"
     inkscape:window-maximized="0"
     fit-margin-top="0"
     fit-margin-left="0"
     fit-margin-right="0"
     fit-margin-bottom="0" />
  <metadata
     id="metadata7">
    <rdf:RDF>
      <cc:Work
         rdf:about="">
        <dc:format>image/svg+xml</dc:format>
        <dc:type
           rdf:resource="http://purl.org/dc/dcmitype/StillImage" />
        <dc:title></dc:title>
      </cc:Work>
    </rdf:RDF>
  </metadata>
  <g
     inkscape:label="Layer 1"
     inkscape:groupmode="layer"
     id="layer1"
     transform="translate(-20.09901,140.18961)">
    <path
       style="opacity:0.1;fill:#004687;fill-opacity:1"
       d="m 197.10607,217.50198 c -13.45542,-0.69504 -26.73728,-2.4425 -39.245,-5.1634 l -8.45276,-1.83881 -9.15809,-2.96454 c -11.62007,-3.76147 -18.75149,-6.72449 -29.99626,-12.46306 l -8.96584,-4.57558 -8.252847,-5.48248 C 82.349768,177.91556 74.515381,171.60042 65.261358,162.62612 l -7.471031,-7.24525 -4.546317,-5.4126 C 44.098121,139.0796 37.767846,129.61883 31.14245,116.93663 l -3.88797,-7.44217 -3.35321,-8.45277 -3.353272,-8.452763 -2.093386,-7.647863 -2.09339,-7.647885 -1.252033,-7.446335 -1.251977,-7.446354 -0.577441,-8.667156 -0.577447,-8.667155 0.553717,-9.191851 0.553717,-9.191824 0.976898,-6.593636 0.976898,-6.593636 2.314969,-9.0565301 2.314969,-9.0565372 2.80457,-7.2452417 c 7.049782,-18.212191 16.566688,-33.727836 30.211015,-49.253869 l 5.433922,-6.183379 7.08336,-6.50236 c 23.867396,-21.909866 47.063881,-35.598325 78.611781,-46.389415 18.13443,-6.20301 33.71916,-9.87561 50.4583,-11.89075 l 8.75104,-1.05352 15.09424,0.006 15.09422,0.006 7.54709,1.03451 c 4.15095,0.56898 10.26411,1.5934 13.5848,2.27657 l 6.0377,1.24201 7.92964,2.60068 7.92962,2.60066 6.56081,3.28215 c 3.60845,1.8052 7.51181,3.8974 8.67404,4.64932 l 2.11318,1.36712 -1.0949,-0.36184 c -2.83376,-0.93656 -25.75534,-5.25991 -33.01804,-6.22763 l -8.15088,-1.08612 -17.81118,0.0313 -17.81117,0.0313 -8.15088,1.33578 -8.15089,1.33578 -7.96556,2.09459 -7.96565,2.09466 -6.49697,2.44037 c -13.35779,5.01739 -26.79606,12.679506 -38.55078,21.98045 l -6.03936,4.778645 -6.66463,6.692955 -6.66467,6.692906 -4.35466,5.64488 c -12.73651,16.509936 -20.859018,34.866497 -24.306233,54.930993 l -1.175173,6.8404707 -0.656291,8.5556395 -0.656304,8.5556598 0.387923,6.94333 c 0.514113,9.201346 1.319968,15.913491 2.790923,23.245251 l 1.211285,6.037689 2.698783,8.111022 2.698841,8.111089 3.243576,6.68124 3.24356,6.681308 3.76468,5.735799 c 2.07057,3.154694 5.60817,8.045227 7.86137,10.867844 l 4.09669,5.132065 7.1458,6.999614 c 17.18161,16.82994 34.65124,27.63777 56.05111,34.67661 l 7.84899,2.58173 6.03767,1.242 c 3.32072,0.68311 9.43389,1.70058 13.58481,2.26103 l 7.54711,1.019 13.28294,-0.006 13.2829,-0.006 7.84899,-1.00803 c 4.31694,-0.55442 10.97349,-1.69708 14.79234,-2.53933 l 6.94333,-1.5313 7.84902,-2.60321 c 21.77022,-7.22029 40.18768,-18.6598 57.27703,-35.57607 21.56711,-21.348652 32.36644,-41.831333 36.41622,-69.069388 l 1.0527,-7.080108 0.0233,-15.094218 0.0233,-15.09421927 -0.8013,-4.52826403 C 371.93039,-33.217269 359.08366,-57.891177 333.93854,-87.902419 l -0.98457,-1.175118 3.86352,2.986423 c 13.36588,10.331514 32.91197,32.16597 44.21131,49.387319 l 4.69518,7.155995 2.6862,5.523157 c 7.07846,14.5543337 11.03256,31.2984593 12.50376,52.9489 l 0.67492,9.932287 -0.39907,7.849001 c -0.5179,10.187204 -1.78926,20.025684 -3.70596,28.679015 l -1.53795,6.943334 -2.73868,8.452776 -2.73866,8.452776 -3.46658,7.849004 c -5.79619,13.12363 -12.18172,23.92412 -21.06085,35.62235 l -4.58273,6.03768 -9.97582,10.00714 -9.97584,10.00712 -6.64145,5.27433 c -8.12404,6.45171 -17.59237,12.82251 -27.07586,18.21802 l -7.15148,4.06876 -8.6087,3.80194 c -19.57616,8.64551 -38.19195,13.66444 -60.11058,16.20605 l -7.55117,0.87559 -11.46753,0.26098 c -6.30714,0.14365 -13.36946,0.16278 -15.69394,0.0426 z"
       id="path4147"
       inkscape:connector-curvature="0"
       sodipodi:nodetypes="cscsscsscsscccccccccccccccsscssscccsccccscccscccccccsscccsscccsscccccsscsscsscccsscsssccccscsscsscsscccsscccsscsscccc" />
  </g>
</svg>
