<?xml version="1.0" encoding="UTF-8" standalone="no"?>
<!-- Created with Inkscape (http://www.inkscape.org/) -->

<svg
   xmlns:dc="http://purl.org/dc/elements/1.1/"
   xmlns:cc="http://creativecommons.org/ns#"
   xmlns:rdf="http://www.w3.org/1999/02/22-rdf-syntax-ns#"
   xmlns:svg="http://www.w3.org/2000/svg"
   xmlns="http://www.w3.org/2000/svg"
   xmlns:sodipodi="http://sodipodi.sourceforge.net/DTD/sodipodi-0.dtd"
   xmlns:inkscape="http://www.inkscape.org/namespaces/inkscape"
   width="282.22369mm"
   height="122.79826mm"
   viewBox="0 0 1000.0052 435.11196"
   id="svg2"
   version="1.1"
   inkscape:version="0.91 r13725"
   sodipodi:docname="logo.svg">
  <defs
     id="defs4" />
  <sodipodi:namedview
     id="base"
     pagecolor="#ffffff"
     bordercolor="#666666"
     borderopacity="1.0"
     inkscape:pageopacity="0.0"
     inkscape:pageshadow="2"
     inkscape:zoom="0.24748737"
     inkscape:cx="607.4459"
     inkscape:cy="-144.45908"
     inkscape:document-units="px"
     inkscape:current-layer="layer1"
     showgrid="false"
     inkscape:window-width="1403"
     inkscape:window-height="766"
     inkscape:window-x="143"
     inkscape:window-y="186"
     inkscape:window-maximized="0"
     fit-margin-top="0"
     fit-margin-left="0"
     fit-margin-right="0"
     fit-margin-bottom="0" />
  <metadata
     id="metadata7">
    <rdf:RDF>
      <cc:Work
         rdf:about="">
        <dc:format>image/svg+xml</dc:format>
        <dc:type
           rdf:resource="http://purl.org/dc/dcmitype/StillImage" />
        <dc:title />
      </cc:Work>
    </rdf:RDF>
  </metadata>
  <g
     inkscape:label="Layer 1"
     inkscape:groupmode="layer"
     id="layer1"
     transform="translate(-36.484004,90.294809)">
    <path
       style="fill:#004687;fill-opacity:0.30044842"
       d="m 59.947318,344.42262 c -0.991177,-0.16725 -2.814822,-0.59659 -4.052547,-0.95409 l -2.250475,-0.65004 -2.701697,-1.39364 -2.701697,-1.39362 -3.319113,-3.29973 -3.319149,-3.2997 -1.605697,-3.28064 -1.605735,-3.28062 -0.735979,-3.08766 c -0.404753,-1.69821 -0.833898,-3.91264 -0.953584,-4.92095 l -0.217641,-1.83329 7.672125,0 7.672124,0 0.446206,2.56225 0.446166,2.56222 0.971492,1.91708 0.971452,1.91709 1.709595,1.66153 1.709634,1.66159 1.665519,0.80626 1.665556,0.80626 2.290499,0.42421 2.290537,0.4242 2.285173,-0.25777 2.285173,-0.25779 1.852592,-0.70391 1.852554,-0.70391 1.56023,-1.23571 1.560231,-1.23572 1.013368,-1.72919 1.013368,-1.72924 0.187573,-2.62119 0.187537,-2.62119 -0.68268,-2.05538 -0.682681,-2.05537 -1.777716,-1.7639 -1.777717,-1.7639 -2.508719,-1.20982 c -1.379794,-0.66543 -5.374447,-2.17278 -8.877004,-3.34976 -3.502556,-1.17694 -7.64283,-2.66769 -9.200589,-3.31279 l -2.832344,-1.17283 -1.825227,-1.33986 c -3.78859,-2.78105 -6.415374,-6.19409 -7.78799,-10.11897 l -0.789744,-2.25826 -0.208918,-3.47362 -0.208881,-3.47361 0.627643,-2.66191 0.627682,-2.66192 1.246755,-2.34519 1.246757,-2.34518 2.262941,-2.42196 2.26298,-2.42196 2.70903,-1.80099 2.709031,-1.80096 3.13308,-1.07545 3.13312,-1.07552 3.433277,-0.42257 3.433316,-0.42262 2.741991,0.24531 c 1.508127,0.13482 4.196469,0.579 5.974108,0.98685 l 3.232079,0.74157 2.750252,1.42539 2.75025,1.42541 2.574408,2.58911 2.574409,2.58915 1.353472,2.83203 1.353474,2.83208 0.60711,2.9749 c 0.33389,1.63618 0.607109,3.24272 0.607109,3.57009 l 0,0.59518 -7.839167,0 -7.839127,0 -0.491169,-1.91634 -0.49113,-1.91635 -1.122015,-1.54893 -1.122054,-1.54889 -2.029862,-1.03642 -2.029901,-1.03642 -2.992862,-0.17947 -2.992825,-0.17947 -1.638656,0.45922 -1.638618,0.45921 -1.783003,1.29454 -1.783043,1.29451 -0.876161,1.80991 -0.876122,1.80987 -0.02895,2.0035 -0.02895,2.0035 1.042546,1.77899 1.042586,1.779 1.838542,1.33911 c 2.742646,1.99763 4.365402,2.72162 11.856706,5.28988 l 6.830276,2.34165 2.768545,1.38581 c 1.522676,0.76219 3.85617,2.15742 5.18556,3.1005 l 2.417016,1.71469 1.495581,2.00331 c 2.819222,3.77639 4.00874,7.13329 4.470961,12.61716 l 0.244003,2.89467 -0.585034,3.26991 -0.585072,3.26987 -1.427499,2.90543 -1.427538,2.90541 -3.12378,3.08881 -3.123779,3.08881 -2.508718,1.45606 -2.508719,1.45606 -2.977386,0.94437 c -1.637537,0.51942 -4.069065,1.12151 -5.403394,1.33806 l -2.426009,0.39368 -3.859567,-0.0425 c -2.122762,-0.0235 -4.670499,-0.17932 -5.661635,-0.34658 z m 201.855342,0 c -4.866,-0.82114 -8.9789,-2.58314 -12.88704,-5.52093 l -2.33338,-1.75405 -1.83728,-2.33856 -1.83727,-2.33855 -1.47891,-3.18595 -1.4789,-3.18595 -0.58156,-2.70171 c -0.31987,-1.48593 -0.6962,-3.52668 -0.8363,-4.53499 l -0.25473,-1.83329 7.71501,0 7.715,0 0.27141,2.17212 0.27138,2.17213 1.32058,2.63972 1.32059,2.63967 1.59078,1.36166 c 0.87492,0.74889 2.33196,1.72043 3.23787,2.15899 l 1.6471,0.79735 2.5311,0.41942 2.53109,0.41941 2.53111,-0.41941 2.5311,-0.41942 1.8048,-0.87368 1.80481,-0.8737 1.61718,-1.66398 1.61717,-1.66393 0.65678,-1.97738 0.65678,-1.97736 -0.19361,-2.41193 -0.19361,-2.41195 -1.08964,-2.00204 -1.08965,-2.00203 -1.37055,-1.07907 c -2.2456,-1.76798 -5.11713,-3.03435 -12.88394,-5.68182 l -7.3647,-2.51041 -2.83802,-1.34676 -2.83804,-1.34675 -2.58225,-2.44261 -2.58227,-2.44257 -1.34095,-2.22558 -1.34095,-2.22559 -0.66308,-2.54005 -0.66306,-2.54006 -0.0222,-3.10305 -0.0222,-3.10306 0.57473,-2.20651 0.57472,-2.20652 1.15867,-2.29526 1.15866,-2.29532 2.41566,-2.59128 2.41564,-2.59131 2.73983,-1.79455 2.73983,-1.79453 3.07178,-1.01527 3.07179,-1.01522 3.44072,-0.42757 3.44072,-0.42756 2.51934,0.2342 c 1.38565,0.12875 3.82195,0.50028 5.41403,0.82553 l 2.89467,0.59136 3.08765,1.48832 3.08765,1.48837 2.00138,1.76834 2.00139,1.76834 1.57737,2.40408 1.57735,2.40405 0.9061,2.89468 c 0.49836,1.59205 1.0215,3.80648 1.16252,4.92093 l 0.25642,2.02626 -7.88691,0 -7.88691,0 -0.46123,-1.92263 -0.46125,-1.92265 -1.05435,-1.45448 -1.05436,-1.45445 -2.07821,-1.12993 -2.07822,-1.12994 -3.00763,-0.17409 -3.00763,-0.17412 -1.7536,0.49098 -1.7536,0.49098 -1.49954,1.08624 -1.49955,1.08625 -0.95364,1.65661 -0.95363,1.65656 -0.25733,1.60099 -0.25731,1.60099 0.49904,1.67964 0.49904,1.67965 1.74749,1.7387 1.74749,1.7387 2.31575,1.22143 2.31573,1.22144 6.94722,2.37914 6.94722,2.37916 3.28063,1.70164 3.28064,1.70169 2.19573,1.7522 2.19576,1.75217 1.53377,2.29686 1.53379,2.29683 0.82933,2.49213 0.82932,2.49212 0.31637,3.1384 0.3164,3.13838 -0.31431,2.80266 -0.3143,2.80266 -0.77983,2.21871 c -0.4289,1.22032 -1.24895,3.02942 -1.82233,4.02021 l -1.0425,1.80149 -2.94801,2.89467 -2.948,2.89468 -2.19849,1.29886 -2.19851,1.29882 -3.18846,1.09403 -3.18847,1.094 -2.50873,0.40239 -2.50871,0.40244 -3.85957,-0.0425 c -2.12277,-0.0235 -4.6705,-0.17932 -5.66166,-0.34658 z m 243.41101,-0.21029 -3.47362,-0.53041 -3.85953,-1.21356 -3.85952,-1.21357 -3.28068,-1.65648 c -1.80435,-0.91106 -4.58326,-2.57508 -6.17534,-3.69782 l -2.89468,-2.04137 -2.90937,-2.91536 -2.90939,-2.91535 -1.81392,-2.55119 c -3.47519,-4.88771 -5.96179,-10.63822 -7.02607,-16.2487 l -0.58654,-3.09193 0.004,-3.91345 0.004,-3.91341 0.727,-3.52259 0.72698,-3.52262 1.35961,-3.3349 1.35965,-3.3349 2.22831,-3.37036 2.22833,-3.37034 3.5014,-3.47359 3.50139,-3.4736 2.98156,-2.04673 c 5.39038,-3.70028 11.15381,-6.1792 17.65556,-7.59381 l 2.89468,-0.62981 6.17529,-0.2088 6.17532,-0.20885 3.85956,0.59589 3.85957,0.59587 3.47361,0.99936 3.47362,0.99939 4.2655,2.07649 4.26548,2.07649 3.06771,2.28953 3.06766,2.28957 2.63901,2.66334 2.63902,2.66331 2.05529,3.08766 c 2.26411,3.40131 3.63541,6.28228 4.84277,10.17435 l 0.79488,2.56221 0.55593,3.6666 0.55596,3.66659 0.004,3.57009 0.004,3.5701 -38.83162,0 -38.8316,0 0.2711,1.44506 c 1.01136,5.39098 5.30103,11.69947 10.4575,15.37903 l 2.35537,1.68076 2.86045,1.35105 c 1.5732,0.74308 3.98933,1.65965 5.36911,2.03681 l 2.50872,0.68576 6.75424,-0.007 6.75426,-0.007 3.65852,-1.26952 3.65855,-1.26948 1.93781,-1.12113 c 1.06583,-0.61661 2.90853,-1.88981 4.09497,-2.82926 l 2.15707,-1.70817 1.70249,-2.33701 1.70246,-2.33704 9.16646,-0.0221 9.16648,-0.0221 0,0.29881 c 0,0.66347 -3.62521,6.6001 -5.62351,9.209 l -2.13218,2.7838 -2.66502,2.51404 -2.66503,2.51409 -2.97747,2.00913 -2.97743,2.00918 -3.12189,1.46296 -3.12188,1.46298 -3.47149,1.01032 -3.47149,1.01036 -3.66659,0.55684 -3.66658,0.55687 -5.01744,-0.0351 -5.01744,-0.0351 -3.47361,-0.53043 z m 37.8473,-50.2446 c -0.13926,-0.58377 -0.82773,-2.27715 -1.53006,-3.76308 l -1.27697,-2.70171 -1.84228,-2.43503 -1.84229,-2.43508 -2.36236,-1.92933 -2.36234,-1.92928 -3.08764,-1.49519 -3.08766,-1.49513 -2.31574,-0.63406 -2.31575,-0.63401 -4.92966,-0.21571 -4.92972,-0.21574 -2.9824,0.48047 -2.98243,0.48044 -3.1765,1.14862 -3.17651,1.14868 -2.3849,1.5414 -2.38486,1.54143 -2.31208,2.18792 -2.31212,2.18791 -1.63426,2.50872 c -1.37021,2.10346 -3.65341,6.79959 -3.65341,7.51454 l 0,0.2046 29.56752,0 29.56753,0 -0.25311,-1.06138 z m 456.17727,50.27958 -2.70171,-0.50054 -2.55634,-0.97277 c -3.0352,-1.15498 -5.20737,-2.46303 -7.96557,-4.79675 l -2.03086,-1.71832 -1.68521,-2.37847 c -2.27096,-3.20525 -3.14037,-5.01418 -4.23661,-8.81528 l -0.92636,-3.21208 -0.27582,-2.41224 -0.27579,-2.41222 7.70326,0 7.70327,0 0.21764,1.83749 0.21761,1.83747 0.86381,2.30872 0.86381,2.30871 2.15931,2.15932 2.15932,2.15931 2.1838,0.81707 2.1838,0.81707 1.9295,0.25596 1.9295,0.25592 2.5986,-0.45252 2.5986,-0.4525 1.5833,-0.79163 1.5834,-0.79161 1.48,-1.40642 1.4801,-1.40643 0.7324,-1.41876 0.7325,-1.41879 0.2454,-2.08822 0.2454,-2.08825 -0.6472,-2.22658 -0.6473,-2.22656 -1.7192,-1.83797 -1.7192,-1.83795 -2.339,-1.24668 -2.3389,-1.24664 -6.6295,-2.22199 c -3.6463,-1.22209 -7.99364,-2.79202 -9.66086,-3.48866 l -3.0313,-1.26663 -2.23947,-1.79733 c -4.0561,-3.2552 -6.3713,-6.67057 -7.52536,-11.10139 l -0.57573,-2.21034 0.004,-3.29603 0.004,-3.29603 0.51452,-1.93175 c 0.75953,-2.85185 1.87194,-5.14031 3.65737,-7.52417 l 1.58991,-2.12277 2.42145,-2.05239 2.42141,-2.05244 3.08766,-1.48104 3.08766,-1.48106 2.70164,-0.67601 2.7017,-0.67605 5.0175,0.0231 5.0174,0.0231 3.0877,0.80638 3.0876,0.80637 2.8556,1.43564 2.8555,1.43561 2.3575,2.33025 2.3575,2.33022 1.4118,2.7017 1.4119,2.70169 0.5717,2.31572 c 0.3144,1.27366 0.6786,3.05388 0.8093,3.95605 l 0.2377,1.64033 -7.8877,0 -7.8876,0 -0.5713,-1.94886 -0.5713,-1.94889 -0.8703,-1.27006 -0.8702,-1.27007 -1.2767,-0.87475 c -0.7022,-0.48114 -1.9336,-1.10917 -2.7365,-1.39562 l -1.4599,-0.52082 -2.7294,-0.017 -2.7294,-0.017 -1.7307,0.5897 -1.7307,0.5897 -1.43688,1.18443 -1.43691,1.18445 -0.76794,1.50522 -0.76793,1.50527 -0.23823,1.738 -0.2382,1.738 0.6606,1.72975 0.66061,1.72978 1.80406,1.59157 1.80402,1.59153 2.2987,1.16285 2.2985,1.16281 6.1925,2.08934 6.1924,2.0893 4.0487,1.99671 4.0487,1.9967 2.9342,2.91209 2.9341,2.91208 1.0236,2.19077 1.0236,2.19081 0.5754,2.44067 0.5754,2.44071 0.01,3.80388 0.01,3.80383 -0.6118,2.37148 -0.6118,2.37142 -1.4084,2.70171 -1.4084,2.70169 -2.7145,2.72709 -2.7144,2.72706 -2.3283,1.36459 c -1.2805,0.7505 -3.4485,1.81109 -4.8178,2.35689 l -2.4894,0.99233 -3.2268,0.60888 -3.2268,0.60888 -3.9134,-0.0348 -3.9134,-0.0348 -2.70169,-0.50056 z m -143.38293,-0.40923 c -1.80434,-0.2853 -4.84375,-0.97392 -6.75424,-1.53033 l -3.47362,-1.01158 -3.50684,-1.6585 -3.50687,-1.6585 -2.86141,-1.93418 -2.86145,-1.93418 -2.79308,-2.59015 -2.79307,-2.5902 -2.32182,-3.08129 -2.32185,-3.08128 -1.53078,-3.20733 -1.53078,-3.20731 -0.76851,-2.84643 c -0.42266,-1.56556 -0.9718,-4.4096 -1.22033,-6.32008 l -0.4518,-3.47361 0.24382,-3.6666 0.24384,-3.66658 0.74308,-3.08766 0.74309,-3.08764 1.34317,-3.18345 1.3432,-3.18348 2.12164,-3.18866 2.12164,-3.18864 3.67806,-3.55818 3.67808,-3.55818 3.30573,-2.15479 c 3.86119,-2.51687 6.89041,-3.94444 11.34573,-5.347 l 3.21441,-1.01194 3.53983,-0.57412 3.53985,-0.57411 5.83528,0 5.83528,0 3.42768,0.59461 c 8.30459,1.44065 15.24603,4.53395 20.8573,9.29461 1.09523,0.92922 2.09389,1.68949 2.21924,1.68949 l 0.22791,0 0,-4.82446 0,-4.82446 8.29807,0 8.29807,0 0,40.13947 0,40.13947 -8.29807,0 -8.29807,0 0,-4.82446 0,-4.82446 -0.37253,0 c -0.20489,0 -0.94303,0.49225 -1.64031,1.09388 -3.61467,3.11875 -8.89206,6.02629 -14.11317,7.77552 l -3.3682,1.12845 -3.42598,0.59743 -3.42598,0.59746 -5.64231,-0.0374 -5.6423,-0.0374 -3.28063,-0.51872 z m 17.26353,-13.52447 2.9506,-0.60946 2.47105,-0.98921 2.47105,-0.98925 2.95662,-1.92368 2.95667,-1.92369 2.89468,-2.95881 2.89467,-2.95882 1.28169,-2.17017 1.28168,-2.17019 1.00881,-2.83083 1.00882,-2.83085 0.004,-4.63148 0.004,-4.63148 -0.68821,-2.50872 -0.68816,-2.50872 -1.51218,-2.91169 -1.51214,-2.9117 -2.54569,-2.7892 -2.54565,-2.78923 -2.40787,-1.7182 -2.40787,-1.71824 -2.86043,-1.35525 -2.86042,-1.35524 -3.08764,-0.79462 -3.08766,-0.79469 -4.82446,-0.0104 -4.82446,-0.0104 -3.08765,0.63779 -3.08766,0.6378 -2.85515,1.18513 -2.85519,1.18512 -2.8056,1.87649 -2.80555,1.87652 -2.67149,2.86055 -2.67147,2.86059 -1.38029,2.63285 -1.38031,2.63288 -0.68607,2.50873 -0.68603,2.50871 0.0104,4.4385 0.0104,4.43846 0.67571,2.50873 0.67573,2.50871 1.59153,3.08766 1.59153,3.08766 3.48904,3.4736 3.48909,3.4736 2.89467,1.61887 2.89468,1.61885 2.95794,0.98477 c 1.62689,0.54158 3.88473,1.13881 5.01744,1.32715 l 2.0595,0.34247 4.16532,0.0451 4.16528,0.0451 2.95061,-0.60946 z m -714.30134,-27.56537 0,-40.13949 8.1051,0 8.10508,0 0,40.13949 0,40.13949 -8.10508,0 -8.1051,0 0,-40.13949 z m 214.9779,6.56126 0,-33.57821 -6.56126,0 -6.56126,0 0,-6.56126 0,-6.56128 6.56126,0 6.56126,0 0,-13.12252 0,-13.12252 8.1051,0 8.1051,0 0,13.12252 0,13.12252 6.56126,0 6.56126,0 0,6.56128 0,6.56126 -6.56126,0 -6.56126,0 0,33.57821 0,33.57823 -8.1051,0 -8.1051,0 0,-33.57823 z m 250.87186,-6.56126 0,-40.13949 7.33319,0 7.33317,0 0,4.71481 0,4.71477 2.02628,-1.948 c 3.90531,-3.75439 7.11368,-5.76958 11.56439,-7.26366 l 2.89201,-0.97084 3.67828,-0.33809 3.67827,-0.33815 4.17182,0.3256 4.17189,0.3256 2.91686,0.79932 2.9169,0.79931 2.38248,1.17183 2.38247,1.17185 2.249,1.80964 2.24902,1.80967 2.12276,2.79745 2.12275,2.79746 0.939,-1.26834 c 0.51644,-0.69757 2.26075,-2.57827 3.87624,-4.17929 l 2.93729,-2.91096 3.26396,-1.61597 3.26392,-1.61592 3.08765,-0.79271 3.08765,-0.79272 4.05255,-0.32319 4.05255,-0.32317 4.05255,0.32466 4.05253,0.32471 2.97129,0.76226 2.97125,0.76226 3.00799,1.38976 3.00796,1.38975 2.77198,2.12315 2.77195,2.12315 1.97632,2.39383 1.97637,2.39378 1.52882,3.08763 1.52884,3.08765 0.85559,3.08766 0.8556,3.08764 0.12372,27.6924 0.12372,27.69239 -8.31479,0 -8.31478,0 -0.006,-25.56962 -0.006,-25.56964 -0.55506,-2.61941 -0.55507,-2.61946 -1.23874,-2.5162 -1.23872,-2.51624 -2.01856,-2.01855 -2.01858,-2.01856 -2.19274,-1.07369 -2.19273,-1.07368 -2.57573,-0.54589 -2.57576,-0.5459 -2.57124,-0.006 -2.57129,-0.006 -2.90614,0.55602 -2.90618,0.55605 -2.10601,1.03121 -2.10604,1.0312 -1.75101,1.78988 -1.75105,1.78987 -1.00098,2.00794 -1.00094,2.0079 -0.77126,3.00954 -0.77129,3.0095 -0.3694,4.43849 -0.36936,4.43852 -0.006,21.51704 -0.006,21.51708 -7.88883,0 -7.88884,0 -0.14799,-24.60473 -0.14799,-24.60471 -0.80861,-3.56289 -0.80859,-3.56287 -0.97978,-2.14009 c -0.53888,-1.17706 -1.53654,-2.91537 -2.21702,-3.86297 l -1.2373,-1.72287 -1.96358,-1.3466 -1.9636,-1.34664 -2.31081,-0.79066 -2.31078,-0.79066 -3.28554,-0.23016 -3.28558,-0.2301 -2.89468,0.44524 -2.89467,0.4452 -2.7017,1.2809 -2.70169,1.28094 -1.602,1.56471 -1.60202,1.56474 -1.06938,1.82477 c -0.58815,1.00361 -1.48307,2.96442 -1.98867,4.35738 l -0.91931,2.53265 -0.55605,3.68881 -0.55609,3.68883 -0.004,23.06087 -0.004,23.06091 -7.91212,0 -7.91211,0 0,-40.13945 z m -465.84976,-58.08647 0,-8.29806 8.1051,0 8.10508,0 0,8.29806 0,8.29806 -8.10508,0 -8.1051,0 0,-8.29806 z m 139.71633,-187.381972 0,-138.558465 21.80656,0 21.80655,0 0,12.736573 0,12.736573 0.23257,0 c 0.12786,0 2.25548,-1.625496 4.72797,-3.612169 8.06123,-6.477396 13.98069,-10.214229 23.30046,-14.70916 l 5.89619,-2.843768 4.9035,-1.763977 c 8.36604,-3.009613 16.93022,-5.03685 26.30978,-6.227835 l 4.68068,-0.594297 7.71914,-0.224357 7.71913,-0.224317 6.33108,0.445856 c 15.79007,1.11202 27.98994,3.58388 41.14913,8.33736 l 5.00991,1.809713 5.78935,2.783828 5.78935,2.783831 4.63148,2.811309 c 14.11019,8.564958 26.6847,20.239262 35.78969,33.227515 0.96724,1.379796 2.98031,4.645414 4.47351,7.256952 l 2.71482,4.748271 1.90945,4.521167 c 3.57515,8.4653537 5.85318,16.76326906 7.2772,26.5077895 l 0.67682,4.6314775 0.0173,9.841899 0.0173,9.841899 -0.50074,3.473605 c -0.27538,1.910485 -0.94081,5.644614 -1.47868,8.298063 l -0.97797,4.824459 -1.86942,5.596384 c -4.83855,14.484802 -11.55721,25.926403 -22.21622,37.83341 l -3.72038,4.15598 -4.12419,3.691903 c -5.64735,5.05548 -9.76095,8.24919 -15.67605,12.17055 l -5.02072,3.32846 -5.78607,2.95631 c -16.98055,8.67599 -33.8274,12.71207 -56.9253,13.63782 l -5.98233,0.23976 -6.94722,-0.42156 -6.94721,-0.42155 -5.40339,-0.77872 c -9.74622,-1.4046 -18.91643,-3.7952 -27.5959,-7.19406 l -4.43851,-1.7381 -6.1753,-3.13696 -6.17531,-3.13695 -5.59637,-3.74549 -5.59638,-3.74548 -4.05255,-3.29381 -4.05255,-3.29381 -0.098,46.49728 -0.0981,46.49729 -21.61203,0 -21.61203,0 0,-138.558452 z m 137.78656,38.789748 c 5.72041,-0.899021 9.90207,-1.907792 15.24528,-3.677745 l 4.6315,-1.534186 5.14657,-2.505487 5.14661,-2.505486 3.32738,-2.168894 c 1.83005,-1.192888 4.72449,-3.221338 6.43212,-4.507653 l 3.10472,-2.338759 5.21052,-5.24079 5.2105,-5.240774 2.59181,-3.666586 2.59185,-3.666586 2.31671,-4.46617 2.31671,-4.466171 1.34131,-4.024874 c 0.73772,-2.213691 1.73538,-5.848518 2.21702,-8.077422 l 0.8757,-4.052549 0,-9.455936 0,-9.455937 -1.04232,-4.882323 -1.04235,-4.882265 -1.20744,-3.6087802 C 496.51659,-10.962835 488.30571,-22.353996 476.75665,-31.621009 465.37472,-40.753903 452.863,-46.290415 437.66904,-48.917467 l -4.63148,-0.800823 -8.74513,-0.193789 -8.74516,-0.193788 -3.99145,0.453731 c -2.19309,0.249559 -5.72601,0.800319 -7.84876,1.223907 l -3.85956,0.770176 -5.40341,1.788099 -5.40339,1.7881 -5.01744,2.537395 c -13.41578,6.784502 -25.06044,16.931729 -32.99663,28.753393 l -2.05958,3.0678846 -2.02457,4.0723053 -2.02456,4.0722758 -1.18528,3.5704503 c -0.6519,1.9637773 -1.57484,5.3505549 -2.05097,7.5261529 l -0.86569,3.9557021 0.006,9.069989 0.006,9.069989 1.03211,4.846953 1.0321,4.846998 1.39724,4.03001 1.39723,4.030039 2.48661,4.824458 2.4866,4.824459 2.59369,3.640865 2.59366,3.64088 4.24553,4.43194 4.24551,4.43194 3.47362,2.899648 c 1.91049,1.594804 5.29725,4.103028 7.52616,5.573845 l 4.05255,2.674197 5.01744,2.463028 5.01742,2.463027 4.73982,1.547995 4.73983,1.548009 4.73569,0.958868 c 2.60458,0.527369 6.20312,1.12348 7.99674,1.32469 l 3.26105,0.365835 8.68403,-0.137484 8.68403,-0.137484 4.05255,-0.636898 z M 155.15092,133.84931 c -8.60132,-0.4443 -17.09168,-1.56136 -25.08719,-3.30069 l -5.4034,-1.17544 -5.85427,-1.89507 c -7.42808,-2.40451 -11.98681,-4.2986 -19.174982,-7.96696 l -5.731381,-2.92492 -5.275605,-3.50466 C 81.793431,108.54386 76.785334,104.50693 70.869736,98.770144 L 66.093907,94.138652 63.187693,90.678663 C 57.341222,83.718135 53.29462,77.670375 49.059362,69.563325 l -2.485368,-4.757374 -2.143527,-5.403403 -2.143565,-5.403388 -1.338189,-4.888865 -1.33819,-4.88888 -0.800357,-4.760038 -0.800321,-4.760052 -0.369128,-5.540444 -0.36913,-5.540443 0.353961,-5.875852 0.353961,-5.875837 0.624478,-4.2149545 0.624478,-4.2149546 1.479835,-5.7893507 1.479835,-5.7893506 1.792808,-4.6314926 c 4.506546,-11.642068 10.590189,-21.560384 19.312269,-31.485339 l 3.473611,-3.952699 4.528006,-4.1566 c 15.25714,-14.00579 30.085401,-22.756086 50.252261,-29.654252 11.59237,-3.965242 21.55484,-6.312939 32.25525,-7.601109 l 5.59409,-0.673456 9.64892,0.0038 9.64892,0.0038 4.82446,0.661298 c 2.65346,0.363726 6.56127,1.018579 8.68402,1.455288 l 3.85957,0.793952 5.06899,1.662469 5.06897,1.662471 4.19398,2.098099 c 2.30669,1.153972 4.80188,2.49139 5.54484,2.97206 l 1.35085,0.873921 -0.69992,-0.231304 c -1.81147,-0.598695 -16.46399,-3.362376 -21.10664,-3.980988 l -5.21042,-0.694298 -11.38572,0.02007 -11.38572,0.02007 -5.21042,0.85389 -5.21041,0.853891 -5.09197,1.33896 -5.092,1.339 -4.15316,1.559998 c -8.53891,3.207339 -17.12927,8.105325 -24.64342,14.050911 l -3.86065,3.054731 -4.26034,4.278446 -4.26035,4.278408 -2.78371,3.608465 c -8.141759,10.553908 -13.334035,22.288267 -15.537654,35.114412 l -0.751227,4.3727436 -0.419535,5.4691556 -0.419534,5.4691703 0.247976,4.4384963 C 86.383769,12.9885 86.898905,17.279211 87.839212,21.966008 l 0.774306,3.859567 1.725188,5.184938 1.725226,5.184981 2.073437,4.270955 2.073436,4.270999 2.406557,3.666586 c 1.3236,2.016625 3.584998,5.142878 5.025348,6.947224 l 2.61879,3.280652 4.56792,4.474473 c 10.98329,10.758531 22.15067,17.667395 35.83045,22.166953 l 5.01743,1.650346 3.85956,0.793961 c 2.12277,0.436664 6.03058,1.087074 8.68403,1.445347 l 4.82446,0.651386 8.49106,-0.0044 8.49104,-0.0044 5.01744,-0.644371 c 2.75959,-0.354411 7.01476,-1.084868 9.45594,-1.623263 l 4.4385,-0.978877 5.01744,-1.664094 c 13.91654,-4.615612 25.68981,-11.928272 36.61413,-22.74193 13.78668,-13.647035 20.69011,-26.740506 23.27892,-44.152319 l 0.67292,-4.52593 0.0148,-9.648918 0.0148,-9.6489177 -0.51223,-2.8946753 c -3.13342,-17.704799 -11.34563,-33.477499 -27.41955,-52.662057 l -0.62938,-0.751187 2.46973,1.909057 c 8.5441,6.604376 21.03885,20.561961 28.2619,31.570642 l 3.00138,4.574437 1.71714,3.530656 c 4.52488,9.303801 7.05252,20.0074115 7.99297,33.847368 l 0.43145,6.349174 -0.2551,5.017441 c -0.33107,6.512128 -1.14378,12.801335 -2.36902,18.332943 l -0.98314,4.438497 -1.75068,5.403403 -1.75069,5.403402 -2.216,5.017441 c -3.70518,8.389226 -7.7871,15.293399 -13.46306,22.77144 l -2.92949,3.859567 -6.37699,6.397019 -6.37702,6.397006 -4.24551,3.37159 c -5.19327,4.12424 -11.24585,8.19674 -17.30814,11.6458 l -4.57156,2.60095 -5.50306,2.43035 c -12.514,5.52663 -24.41406,8.73495 -38.42545,10.35966 l -4.82705,0.55973 -7.33058,0.16682 c -4.03183,0.0918 -8.54637,0.10404 -10.03229,0.0272 z m 523.55025,-0.38752 c -9.62877,-0.55457 -17.21428,-1.5445 -25.28012,-3.29912 l -5.4034,-1.17546 -5.85426,-1.89506 C 629.89872,123.12202 619.27916,117.84348 609.229,110.72184 582.73987,91.951437 566.07974,65.313696 561.68315,34.701325 l -0.49889,-3.473605 0.0336,-8.684026 0.0336,-8.684026 0.60862,-4.2586861 c 0.33474,-2.3422515 1.06729,-6.3369056 1.62789,-8.87700732 l 1.01927,-4.61832108 1.73315,-5.2104067 1.73317,-5.2104218 3.21289,-6.561262 3.2129,-6.561266 3.06601,-4.63148 c 1.68632,-2.547314 4.52507,-6.455126 6.3083,-8.684026 l 3.2423,-4.052546 5.2208,-5.239864 5.22084,-5.239865 3.94792,-3.279782 c 7.55795,-6.278861 14.54311,-10.88317 23.08229,-15.214841 l 5.41664,-2.747702 5.07791,-1.978878 5.07795,-1.978839 5.32965,-1.540005 5.32967,-1.540006 5.78935,-1.154204 5.78935,-1.154242 5.21038,-0.608384 5.21042,-0.608345 7.91211,-0.23802 7.9121,-0.23802 6.36046,0.473107 c 28.28163,2.103657 53.40642,11.680903 74.19486,28.282138 l 3.96921,3.169746 5.41822,5.417985 5.41822,5.418021 2.62241,3.280632 c 1.44233,1.804347 3.83031,5.104278 5.3066,7.333178 l 2.68422,4.052545 2.70664,5.319179 2.70666,5.319178 1.68251,4.353326 1.68253,4.353312 1.37015,4.9938648 c 1.58537,5.77811811 2.6743,11.2976501 3.55173,18.0026702 l 0.62096,4.745195 0.20962,10.131356 0.20958,10.131371 -101.39118,0 -101.39119,0 0.20004,0.67542 c 0.10996,0.371489 0.57045,2.151712 1.02318,3.956058 1.12318,4.476367 3.03312,9.298399 5.81402,14.678626 l 2.33461,4.516769 3.03018,4.035766 3.03022,4.035752 3.36578,3.388583 c 7.91759,7.971268 17.82588,14.351934 28.53371,18.374959 l 3.85956,1.450082 4.82446,1.194206 c 2.65342,0.656817 6.56123,1.463446 8.68398,1.792521 l 3.85957,0.598301 7.17119,0.232214 7.17124,0.232229 4.98641,-0.459974 4.98644,-0.459973 4.69663,-0.94182 4.69667,-0.941835 4.88308,-1.595914 4.88312,-1.595928 5.27958,-2.619574 5.27958,-2.619573 3.28064,-2.198951 c 4.78115,-3.204733 8.02053,-5.952201 12.25899,-10.397505 l 3.75822,-3.941554 2.31573,-3.329624 2.31575,-3.329623 24.21878,-0.0148 24.21855,-0.0148 0,0.254442 c 0,0.472567 -4.48192,8.788893 -6.727,12.482117 -5.4492,8.96413 -11.48125,16.666394 -18.74421,23.934271 l -4.44043,4.44344 -4.24553,3.41027 c -2.33503,1.87563 -6.59021,4.97148 -9.45594,6.87968 l -5.21042,3.46944 -7.33317,3.61338 -7.33318,3.6134 -5.01744,1.79446 -5.01744,1.79448 -5.8272,1.48777 c -7.04388,1.79841 -13.02404,2.86464 -20.33692,3.62595 l -5.48432,0.57095 -7.52616,0.16048 c -4.13939,0.0882 -8.65509,0.0955 -10.03488,0.016 z M 761.52559,1.9914948 c -1.03143,-3.348211 -3.35866,-8.9270285 -5.30292,-12.7120668 -10.09366,-19.650247 -26.93747,-32.697553 -48.96071,-37.925183 l -4.05253,-0.961958 -4.55476,-0.590205 -4.55476,-0.590166 -7.71457,0 -7.71458,0 -3.74788,0.406991 c -2.06131,0.223855 -5.87012,0.831659 -8.46399,1.350694 l -4.71608,0.943664 -4.73407,1.554518 -4.73406,1.554556 -5.02319,2.455728 -5.02319,2.455727 -3.47361,2.294204 c -4.88192,3.22436 -8.76381,6.394839 -12.707,10.378183 l -3.39511,3.429726 -2.60876,3.473612 c -3.362,4.476523 -5.47577,7.942018 -7.76865,12.7365674 -1.93681,4.0500029 -4.20403,9.8922607 -4.20403,10.8331186 l 0,0.5526162 76.97987,0 76.97988,0 -0.5053,-1.6403264 z m 68.08466,21.5170912 0,-104.787253 20.84166,0 20.84167,0 0,12.010279 0,12.010318 3.67635,-3.514638 c 6.83156,-6.531005 13.91251,-11.469862 21.98977,-15.337573 l 4.24553,-2.032912 4.49705,-1.539851 4.49705,-1.539891 4.37995,-0.9784 c 2.40899,-0.53814 6.46412,-1.252738 9.01144,-1.58798 l 4.63148,-0.609503 7.1402,-0.224627 7.14019,-0.224626 6.3683,0.444004 6.36828,0.443966 5.40338,0.773728 5.40341,0.773726 4.82446,1.152352 c 8.28992,1.980035 15.0579,4.407432 21.97576,7.881777 l 3.40445,1.709826 4.58147,3.071715 4.5814,3.071752 3.8596,3.449914 3.8596,3.449913 2.4416,2.886029 c 1.3429,1.587325 3.5593,4.436225 4.9253,6.330887 l 2.4838,3.444857 3.018,5.994834 3.018,5.994796 1.7675,5.390927 1.7675,5.390889 0.9743,4.631482 c 0.5359,2.547316 1.2518,6.628812 1.5909,9.0699811 l 0.6166,4.4384963 0.3665,7.5261677 0.3665,7.5261529 0.01,59.147856 0.01,59.147873 -21.7943,0 -21.79434,0 -0.12757,-62.23553 -0.12757,-62.2355123 -0.63606,-3.87708933 C 991.00956,-6.1152595 989.9369,-10.670388 988.47514,-15.03884 l -1.34673,-4.024643 -1.61859,-3.21915 c -2.09504,-4.166866 -4.80242,-8.158623 -7.53634,-11.111579 l -2.18352,-2.358427 -3.09409,-2.331486 -3.09407,-2.33145 -3.4586,-1.737036 -3.45863,-1.736999 -3.91522,-1.307968 -3.91526,-1.307969 -4.63148,-0.878554 -4.63147,-0.878553 -10.80679,-0.0081 -10.8068,-0.0081 -4.68944,0.853389 -4.68946,0.853389 -4.19057,1.354708 -4.19056,1.354708 -3.41278,1.741437 c -4.02665,2.05464 -7.45738,4.439235 -10.68239,7.424996 l -2.33767,2.164292 -2.49162,3.319034 -2.49161,3.318996 -2.09387,4.245524 c -4.25319,8.623966 -6.77887,18.0507335 -8.58278,32.034405 l -0.64729,5.01744 -0.14118,56.446192 -0.14119,56.446164 -21.792,0 -21.79201,0 0,-104.787274 z"
       id="path4147"
       inkscape:connector-curvature="0" />
  </g>
</svg>
